{
    "asset" : {
        "generator" : "Khronos glTF Blender I/O v1.8.19",
        "version" : "2.0"
    },
    "scene" : 0,
    "scenes" : [
        {
            "name" : "Scene",
            "nodes" : [
                0,
                1,
                2
            ]
        }
    ],
    "nodes" : [
        {
            "mesh" : 0,
            "name" : "Camada_01",
            "scale" : [
                0.25,
                0.25,
                0.25
            ]
        },
        {
            "mesh" : 1,
            "name" : "Camada_02",
            "scale" : [
                0.25,
                0.25,
                0.25
            ]
        },
        {
            "mesh" : 2,
            "name" : "Camada_03",
            "scale" : [
                0.2499999850988388,
                0.2499999850988388,
                0.2499999850988388
            ]
        }
    ],
    "materials" : [
        {
            "alphaMode" : "BLEND",
            "doubleSided" : true,
            "name" : "Camada_01_Material",
            "pbrMetallicRoughness" : {
                "baseColorFactor" : [
                    0.8000000715255737,
                    0,
                    0.0065988218411803246,
                    1
                ],
                "metallicFactor" : 0,
                "roughnessFactor" : 0.5
            }
        },
        {
            "alphaMode" : "BLEND",
            "doubleSided" : true,
            "name" : "Camada_02_Material",
            "pbrMetallicRoughness" : {
                "baseColorFactor" : [
                    0.13003438711166382,
                    0.1313171684741974,
                    0.8000000715255737,
                    1
                ],
                "metallicFactor" : 0,
                "roughnessFactor" : 0.5
            }
        },
        {
            "alphaMode" : "BLEND",
            "doubleSided" : true,
            "name" : "Camada_03_Material",
            "pbrMetallicRoughness" : {
                "baseColorFactor" : [
                    0.002165889833122492,
                    0.800000011920929,
                    0,
                    1
                ],
                "metallicFactor" : 0,
                "roughnessFactor" : 0.5
            }
        }
    ],
    "meshes" : [
        {
            "name" : "Camada_01_Properties",
            "primitives" : [
                {
                    "attributes" : {
                        "POSITION" : 0,
                        "NORMAL" : 1
                    },
                    "indices" : 2,
                    "material" : 0
                }
            ]
        },
        {
            "name" : "Camada_02_Properties",
            "primitives" : [
                {
                    "attributes" : {
                        "POSITION" : 3,
                        "NORMAL" : 4
                    },
                    "indices" : 5,
                    "material" : 1
                }
            ]
        },
        {
            "name" : "Camada_03_Properties",
            "primitives" : [
                {
                    "attributes" : {
                        "POSITION" : 6,
                        "NORMAL" : 7
                    },
                    "indices" : 8,
                    "material" : 2
                }
            ]
        }
    ],
    "accessors" : [
        {
            "bufferView" : 0,
            "componentType" : 5126,
            "count" : 14055,
            "max" : [
                0.42356786131858826,
                0.06662237644195557,
                -1.2480000257492065
            ],
            "min" : [
                -0.6172446608543396,
                -0.12991681694984436,
                -2.921999931335449
            ],
            "type" : "VEC3"
        },
        {
            "bufferView" : 1,
            "componentType" : 5126,
            "count" : 14055,
            "type" : "VEC3"
        },
        {
            "bufferView" : 2,
            "componentType" : 5123,
            "count" : 14055,
            "type" : "SCALAR"
        },
        {
            "bufferView" : 3,
            "componentType" : 5126,
            "count" : 8562,
            "max" : [
                -0.1226196438074112,
                -0.003205261193215847,
                1.4505000114440918
            ],
            "min" : [
                -0.9358071684837341,
                -0.09592071920633316,
                0.3555000126361847
            ],
            "type" : "VEC3"
        },
        {
            "bufferView" : 4,
            "componentType" : 5126,
            "count" : 8562,
            "type" : "VEC3"
        },
        {
            "bufferView" : 5,
            "componentType" : 5123,
            "count" : 8562,
            "type" : "SCALAR"
        },
        {
            "bufferView" : 6,
            "componentType" : 5126,
            "count" : 5286,
            "max" : [
                1.176567792892456,
                -0.013585876673460007,
                -0.7919999957084656
            ],
            "min" : [
                0.18375535309314728,
                -0.1480347365140915,
                -2.503499984741211
            ],
            "type" : "VEC3"
        },
        {
            "bufferView" : 7,
            "componentType" : 5126,
            "count" : 5286,
            "type" : "VEC3"
        },
        {
            "bufferView" : 8,
            "componentType" : 5123,
            "count" : 5286,
            "type" : "SCALAR"
        }
    ],
    "bufferViews" : [
        {
            "buffer" : 0,
            "byteLength" : 168660,
            "byteOffset" : 0
        },
        {
            "buffer" : 0,
            "byteLength" : 168660,
            "byteOffset" : 168660
        },
        {
            "buffer" : 0,
            "byteLength" : 28110,
            "byteOffset" : 337320
        },
        {
            "buffer" : 0,
            "byteLength" : 102744,
            "byteOffset" : 365432
        },
        {
            "buffer" : 0,
            "byteLength" : 102744,
            "byteOffset" : 468176
        },
        {
            "buffer" : 0,
            "byteLength" : 17124,
            "byteOffset" : 570920
        },
        {
            "buffer" : 0,
            "byteLength" : 63432,
            "byteOffset" : 588044
        },
        {
            "buffer" : 0,
            "byteLength" : 63432,
            "byteOffset" : 651476
        },
        {
            "buffer" : 0,
            "byteLength" : 10572,
            "byteOffset" : 714908
        }
    ],
    "buffers" : [
        {
            "byteLength" : 725480,
            "uri" : "data:application/octet-stream;base64,"
        }
    ]
}
